<svg width="100" height="100" viewBox="0 0 100 100" fill="none" xmlns="http://www.w3.org/2000/svg">
<path d="M50.5239 84.6638H22.7461C22.7461 84.6638 28.1739 74.5791 28.1739 54.1666C28.1739 33.7541 22.7461 23.6666 22.7461 23.6666H36.4822C36.4822 32.1138 43.8933 32.8375 43.8933 32.8375L50.5239 47.0111H50.8641L57.4961 32.8375C57.4961 32.8375 64.9072 32.1138 64.9072 23.6666H78.6433C78.6433 23.6666 73.2128 33.7527 73.2128 54.1666C73.2128 74.5805 78.6405 84.6638 78.6405 84.6638H50.8628" fill="white"/>
<path d="M22.7953 23.6666L12.6328 34.9444C12.6328 34.9444 14.5175 39.0583 22.7467 42.0097L27.6856 43.8944" fill="white"/>
<path d="M22.7953 23.6666L12.6328 34.9444C12.6328 34.9444 14.5175 39.0583 22.7467 42.0097L27.6856 43.8944" stroke="#EEEEEE" stroke-miterlimit="10"/>
<path d="M22.7941 23.6666L11.9746 34.4861C11.9746 34.4861 14.5163 39.0583 22.7454 42.0097" fill="white"/>
<path d="M78.5951 23.6666L88.677 35C88.677 35 86.8728 39.0583 78.6437 42.0097L73.9492 43.818" fill="white"/>
<path d="M78.5951 23.6666L88.677 35C88.677 35 86.8728 39.0583 78.6437 42.0097L73.9492 43.818" stroke="#EEEEEE" stroke-opacity="0.933333" stroke-miterlimit="10"/>
<path d="M78.5938 23.6666L89.4132 34.4861C89.4132 34.4861 86.8715 39.0583 78.6424 42.0097" fill="white"/>
<path d="M40.8978 22.2222C40.8978 24.2416 45.3603 25.8791 50.8645 25.8791C56.3686 25.8791 60.8297 24.2416 60.8297 22.2222H64.9075L60.8297 41.1388L49.5033 48.5319L37.2714 36.0347L35.002 22.2805L40.8978 22.2222Z" fill="white"/>
<path d="M78.5941 23.6666L89.4135 34.4861C89.4135 34.4861 86.8718 39.0583 78.6427 42.0097M22.7941 23.6666L11.9746 34.4861C11.9746 34.4861 14.5163 39.0583 22.7454 42.0097" stroke="#EEEEEE" stroke-miterlimit="10" stroke-linecap="round" stroke-linejoin="round"/>
<path d="M50.5239 84.6638H22.7461C22.7461 84.6638 28.1739 74.5791 28.1739 54.1666C28.1739 33.7541 22.7461 23.6666 22.7461 23.6666H36.4822M64.9072 23.6666H78.6433C78.6433 23.6666 73.2128 33.7527 73.2128 54.1666C73.2128 74.5805 78.6405 84.6638 78.6405 84.6638H50.8628" stroke="#EEEEEE" stroke-opacity="0.933333" stroke-miterlimit="10" stroke-linecap="round" stroke-linejoin="round"/>
<path d="M60.8304 23.6111C60.8304 25.5236 56.3679 27.075 50.8651 27.075C45.3623 27.075 40.8984 25.525 40.8984 23.6111" stroke="white" stroke-width="2" stroke-miterlimit="10" stroke-linecap="round" stroke-linejoin="round"/>
</svg>
